<?xml version="1.0" encoding="utf-8"?>
<!-- Generator: Adobe Illustrator 25.4.1, SVG Export Plug-In . SVG Version: 6.00 Build 0)  -->
<svg version="1.1" id="Layer_1" xmlns="http://www.w3.org/2000/svg" xmlns:xlink="http://www.w3.org/1999/xlink" x="0px" y="0px"
	 viewBox="0 0 648 108" style="enable-background:new 0 0 648 108;" xml:space="preserve">
<style type="text/css">
	.st0{fill:#972120;}
	.st1{fill:#CC2728;}
	.st2{fill:#2C4536;}
	.st3{fill:#3D624D;}
	.st4{opacity:0.5;fill:#010101;enable-background:new    ;}
	.st5{fill:#343434;}
</style>
<g>
	<g>
		<g>
			<path class="st0" d="M118.6,63.9L87.1,38.1c-1.1-0.9-2.7-0.3-2.9,1.1l-2,12.2l22.2,18.2L118.6,63.9z"/>
			<path class="st1" d="M111.7,25.3L85.6,35.7c-0.6,0.3-1,0.8-1.1,1.4l-2.3,14.3l41.6-16.3l-10.2-9.4
				C113.1,25.2,112.3,25.1,111.7,25.3z"/>
			<g>
				<path class="st2" d="M117.4,41.1l-14.2,5.7l31.5,25.8c1.1,0.9,2.7,0.3,2.9-1.1l2-12.2L117.4,41.1z"/>
				<path class="st3" d="M110.2,85.3l26.1-10.4c0.6-0.2,1-0.8,1.1-1.4l2.4-14.3L98.1,75.5l10.2,9.4
					C108.8,85.5,109.5,85.6,110.2,85.3z"/>
			</g>
		</g>
		<polygon class="st4" points="139.7,59.3 137.6,57.5 125.4,64.9 		"/>
		<polygon class="st4" points="82.1,51.4 84.2,53.1 96.5,45.8 		"/>
	</g>
</g>
<g>
	<path class="st5" d="M180.6,76.2c-2.8-0.7-5-1.6-6.7-2.7l3.4-7.3c1.6,1,3.5,1.8,5.7,2.4s4.4,0.9,6.5,0.9c4.3,0,6.5-1.1,6.5-3.2
		c0-1-0.6-1.7-1.8-2.2c-1.2-0.4-3-0.8-5.4-1.1c-2.9-0.4-5.2-0.9-7.1-1.5c-1.9-0.6-3.5-1.6-4.9-3s-2.1-3.5-2.1-6.1
		c0-2.2,0.6-4.2,1.9-5.9s3.2-3.1,5.6-4c2.4-0.9,5.4-1.4,8.7-1.4c2.5,0,5,0.3,7.4,0.8s4.5,1.3,6.1,2.2l-3.4,7.2
		c-3.1-1.7-6.5-2.6-10.1-2.6c-2.2,0-3.8,0.3-4.9,0.9c-1.1,0.6-1.6,1.4-1.6,2.4c0,1.1,0.6,1.9,1.8,2.3c1.2,0.4,3,0.9,5.6,1.2
		c2.9,0.5,5.2,1,7,1.5s3.4,1.5,4.8,3c1.3,1.4,2,3.4,2,6c0,2.2-0.7,4.1-2,5.8s-3.2,3-5.7,3.9s-5.5,1.4-8.9,1.4
		C186.3,77.3,183.4,76.9,180.6,76.2z"/>
	<path class="st5" d="M234.7,75.2c-1,0.7-2.2,1.3-3.7,1.7s-3,0.6-4.6,0.6c-4.2,0-7.4-1.1-9.7-3.2s-3.4-5.3-3.4-9.4V50.4h-5.4v-7.8
		h5.4v-8.8h10.2v8.6h8.7v7.8h-8.8v14.3c0,1.5,0.4,2.6,1.1,3.4s1.8,1.2,3.2,1.2c1.6,0,3-0.4,4.1-1.3L234.7,75.2z"/>
	<path class="st5" d="M276.3,41.5v35.3h-7.5l-0.8-3.2c-3,2.6-7,4.2-11.4,4.2c-10.6,0-18.5-8-18.5-18.7c0-10.6,7.9-18.6,18.5-18.6
		c4.5,0,8.5,1.6,11.6,4.3l1-3.4L276.3,41.5L276.3,41.5z M266.9,59.2c0-5.5-4.1-9.7-9.6-9.7s-9.6,4.1-9.6,9.7s4.1,9.7,9.6,9.7
		C262.9,68.8,266.9,64.7,266.9,59.2z"/>
	<path class="st5" d="M300.2,42.5c2.1-0.9,4.4-1.3,7.1-1.3v9.4c-1.1-0.1-1.9-0.1-2.3-0.1c-2.9,0-5.2,0.8-6.9,2.4
		c-1.7,1.6-2.5,4.1-2.5,7.4v16.6h-10.2V41.7h9.7v4.6C296.5,44.7,298.1,43.3,300.2,42.5z"/>
	<path class="st5" d="M337.3,75.2c-1,0.7-2.2,1.3-3.7,1.7s-3,0.6-4.6,0.6c-4.2,0-7.4-1.1-9.7-3.2c-2.3-2.1-3.4-5.3-3.4-9.4V50.4
		h-5.4v-7.8h5.4v-8.8h10.2v8.6h8.8v7.8h-8.8v14.3c0,1.5,0.4,2.6,1.1,3.4s1.8,1.2,3.2,1.2c1.6,0,3-0.4,4.1-1.3L337.3,75.2z"/>
	<path class="st5" d="M376.2,62.2h-26.6c0.5,2.2,1.6,3.9,3.4,5.2c1.8,1.3,4,1.9,6.7,1.9c1.8,0,3.4-0.3,4.9-0.8
		c1.4-0.5,2.7-1.4,3.9-2.6l5.4,5.9c-3.3,3.8-8.1,5.7-14.5,5.7c-4,0-7.5-0.8-10.5-2.3s-5.4-3.7-7.1-6.4s-2.5-5.9-2.5-9.3
		c0-3.4,0.8-6.5,2.4-9.3s3.9-4.9,6.7-6.5c2.9-1.6,6-2.3,9.6-2.3c3.4,0,6.6,0.7,9.3,2.2c2.7,1.5,5,3.6,6.6,6.4c1.6,2.8,2.4,6,2.4,9.6
		C376.4,59.5,376.3,60.5,376.2,62.2z M352.4,50.8c-1.6,1.3-2.5,3.1-2.9,5.4h17.3c-0.4-2.2-1.3-4-2.9-5.3s-3.5-2-5.8-2
		C355.9,48.8,354,49.5,352.4,50.8z"/>
	<path class="st5" d="M397.9,42.5c2.1-0.9,4.5-1.3,7.1-1.3v9.4c-1.1-0.1-1.9-0.1-2.3-0.1c-2.9,0-5.2,0.8-6.9,2.4
		c-1.7,1.6-2.5,4.1-2.5,7.4v16.6h-10.1V41.7h9.7v4.6C394.2,44.7,395.8,43.3,397.9,42.5z"/>
	<path class="st5" d="M418.6,75.1c-3-1.6-5.3-3.7-7-6.4s-2.5-5.9-2.5-9.3s0.8-6.6,2.5-9.3s4-4.9,7-6.4c3-1.6,6.4-2.3,10.1-2.3
		s6.9,0.8,9.7,2.3c2.8,1.6,4.8,3.8,6,6.6l-7.9,4.2c-1.8-3.2-4.5-4.8-7.9-4.8c-2.7,0-4.9,0.9-6.6,2.6c-1.7,1.7-2.6,4.1-2.6,7.1
		s0.9,5.4,2.6,7.1s3.9,2.6,6.6,2.6c3.5,0,6.1-1.6,7.9-4.8l7.9,4.3c-1.3,2.8-3.3,5-6,6.5c-2.8,1.6-6,2.4-9.7,2.4
		C425,77.3,421.6,76.6,418.6,75.1z"/>
	<path class="st5" d="M456.7,75.1c-2.9-1.6-5.2-3.7-6.9-6.4c-1.7-2.7-2.5-5.9-2.5-9.3s0.8-6.6,2.5-9.3c1.6-2.7,4-4.9,6.9-6.4
		c2.9-1.6,6.3-2.3,10-2.3s7,0.8,9.9,2.3c2.9,1.6,5.2,3.7,6.9,6.4c1.6,2.7,2.5,5.9,2.5,9.3s-0.8,6.6-2.5,9.3s-3.9,4.9-6.9,6.4
		c-2.9,1.6-6.2,2.3-9.9,2.3C462.9,77.3,459.6,76.6,456.7,75.1z M473.1,66.3c1.7-1.8,2.5-4.1,2.5-7.1s-0.8-5.3-2.5-7.1
		s-3.8-2.6-6.4-2.6s-4.8,0.9-6.5,2.6c-1.7,1.8-2.5,4.1-2.5,7.1s0.9,5.3,2.5,7.1c1.7,1.8,3.9,2.6,6.5,2.6S471.4,68.1,473.1,66.3z"/>
	<path class="st5" d="M528.5,28.4v48.5h-9.7v-4.1c-2.5,3.1-6.2,4.6-11,4.6c-3.3,0-6.3-0.7-9-2.2s-4.8-3.6-6.3-6.3s-2.3-5.9-2.3-9.5
		s0.8-6.8,2.3-9.5s3.6-4.9,6.3-6.3c2.7-1.5,5.7-2.2,9-2.2c4.5,0,8,1.4,10.5,4.2V28.4L528.5,28.4L528.5,28.4z M515.9,66.3
		c1.7-1.8,2.5-4.1,2.5-7.1s-0.9-5.3-2.5-7.1c-1.7-1.8-3.8-2.6-6.4-2.6c-2.6,0-4.8,0.9-6.5,2.6c-1.7,1.8-2.5,4.1-2.5,7.1
		s0.9,5.3,2.5,7.1c1.7,1.8,3.9,2.6,6.5,2.6C512.1,68.9,514.2,68.1,515.9,66.3z"/>
	<path class="st5" d="M572.1,62.2h-26.6c0.5,2.2,1.6,3.9,3.4,5.2s4,1.9,6.7,1.9c1.8,0,3.5-0.3,4.9-0.8s2.7-1.4,4-2.6l5.4,5.9
		c-3.3,3.8-8.1,5.7-14.5,5.7c-4,0-7.5-0.8-10.5-2.3s-5.4-3.7-7-6.4c-1.7-2.7-2.5-5.9-2.5-9.3c0-3.4,0.8-6.5,2.5-9.3
		c1.6-2.8,3.9-4.9,6.7-6.5s6-2.3,9.6-2.3c3.4,0,6.5,0.7,9.3,2.2s5,3.6,6.6,6.4c1.6,2.8,2.4,6,2.4,9.6
		C572.3,59.5,572.2,60.5,572.1,62.2z M548.3,50.8c-1.6,1.3-2.5,3.1-2.9,5.4h17.3c-0.4-2.2-1.3-4-2.9-5.3c-1.6-1.3-3.5-2-5.8-2
		C551.8,48.8,549.8,49.5,548.3,50.8z"/>
</g>
<g>
	<g>
		<g>
			<path class="st0" d="M768.7,64.6l-31.5-25.8c-1.1-0.9-2.7-0.3-2.9,1.1l-2,12.2l22.2,18.2L768.7,64.6z"/>
			<path class="st1" d="M761.8,26l-26.1,10.4c-0.6,0.3-1,0.8-1.1,1.4l-2.3,14.3l41.6-16.3l-10.2-9.4C763.2,25.9,762.4,25.8,761.8,26
				z"/>
			<g>
				<path class="st2" d="M767.5,41.8l-14.2,5.7l31.5,25.8c1.1,0.9,2.7,0.3,2.9-1.1l2-12.2L767.5,41.8z"/>
				<path class="st3" d="M760.2,86l26.1-10.4c0.6-0.2,1-0.8,1.1-1.4l2.3-14.3l-41.6,16.3l10.2,9.4C758.8,86.2,759.6,86.3,760.2,86z"
					/>
			</g>
		</g>
		<polygon class="st4" points="789.8,60 787.7,58.2 775.5,65.6 		"/>
		<polygon class="st4" points="732.2,52.1 734.3,53.8 746.5,46.5 		"/>
	</g>
</g>
<g>
	<path class="st5" d="M830.7,76.9c-2.8-0.7-5-1.6-6.7-2.7l3.4-7.3c1.6,1,3.5,1.8,5.7,2.4s4.4,0.9,6.5,0.9c4.3,0,6.5-1.1,6.5-3.2
		c0-1-0.6-1.7-1.8-2.2c-1.2-0.4-3-0.8-5.4-1.1c-2.9-0.4-5.2-0.9-7.1-1.5c-1.9-0.6-3.5-1.6-4.9-3s-2.1-3.5-2.1-6.1
		c0-2.2,0.6-4.2,1.9-5.9s3.2-3.1,5.6-4c2.4-0.9,5.4-1.4,8.7-1.4c2.5,0,5,0.3,7.4,0.8s4.5,1.3,6.1,2.2l-3.4,7.2
		c-3.1-1.7-6.5-2.6-10.1-2.6c-2.2,0-3.8,0.3-4.9,0.9c-1.1,0.6-1.6,1.4-1.6,2.4c0,1.1,0.6,1.9,1.8,2.3c1.2,0.4,3,0.9,5.6,1.2
		c2.9,0.5,5.2,1,7,1.5s3.4,1.5,4.8,3c1.3,1.4,2,3.4,2,6c0,2.2-0.7,4.1-2,5.8s-3.2,3-5.7,3.9s-5.5,1.4-8.9,1.4
		C836.4,78,833.5,77.6,830.7,76.9z"/>
	<path class="st5" d="M884.8,75.8c-1,0.7-2.2,1.3-3.7,1.7s-3,0.6-4.6,0.6c-4.2,0-7.4-1.1-9.7-3.2s-3.4-5.3-3.4-9.4V51.1H858v-7.8
		h5.4v-8.8h10.2v8.6h8.7v7.8h-8.8v14.3c0,1.5,0.4,2.6,1.1,3.4s1.8,1.2,3.2,1.2c1.6,0,3-0.4,4.1-1.3L884.8,75.8z"/>
	<path class="st5" d="M926.4,42.1v35.3h-7.5l-0.8-3.2c-3,2.6-7,4.2-11.4,4.2c-10.6,0-18.5-8-18.5-18.7c0-10.6,7.9-18.6,18.5-18.6
		c4.5,0,8.5,1.6,11.6,4.3l1-3.4L926.4,42.1L926.4,42.1z M917,59.8c0-5.5-4.1-9.7-9.6-9.7s-9.6,4.1-9.6,9.7s4.1,9.7,9.6,9.7
		C913,69.4,917,65.3,917,59.8z"/>
	<path class="st5" d="M950.3,43.1c2.1-0.9,4.4-1.3,7.1-1.3v9.4c-1.1-0.1-1.9-0.1-2.3-0.1c-2.9,0-5.2,0.8-6.9,2.4
		c-1.7,1.6-2.5,4.1-2.5,7.4v16.6h-10.2V42.3h9.7v4.6C946.6,45.3,948.2,44,950.3,43.1z"/>
	<path class="st5" d="M987.4,75.8c-1,0.7-2.2,1.3-3.7,1.7s-3,0.6-4.6,0.6c-4.2,0-7.4-1.1-9.7-3.2s-3.4-5.3-3.4-9.4V51.1h-5.4v-7.8
		h5.4v-8.8h10.2v8.6h8.8v7.8h-8.8v14.3c0,1.5,0.4,2.6,1.1,3.4s1.8,1.2,3.2,1.2c1.6,0,3-0.4,4.1-1.3L987.4,75.8z"/>
	<path class="st5" d="M1026.3,62.8h-26.6c0.5,2.2,1.6,3.9,3.4,5.2s4,1.9,6.7,1.9c1.8,0,3.4-0.3,4.9-0.8c1.4-0.5,2.7-1.4,3.9-2.6
		l5.4,5.9c-3.3,3.8-8.1,5.7-14.5,5.7c-4,0-7.5-0.8-10.5-2.3s-5.4-3.7-7.1-6.4s-2.5-5.9-2.5-9.3c0-3.4,0.8-6.5,2.4-9.3
		c1.6-2.8,3.9-4.9,6.7-6.5c2.9-1.6,6-2.3,9.6-2.3c3.4,0,6.6,0.7,9.3,2.2s5,3.6,6.6,6.4c1.6,2.8,2.4,6,2.4,9.6
		C1026.5,60.1,1026.4,61.1,1026.3,62.8z M1002.5,51.5c-1.6,1.3-2.5,3.1-2.9,5.4h17.3c-0.4-2.2-1.3-4-2.9-5.3s-3.5-2-5.8-2
		C1006,49.5,1004.1,50.1,1002.5,51.5z"/>
	<path class="st5" d="M1048,43.1c2.1-0.9,4.5-1.3,7.1-1.3v9.4c-1.1-0.1-1.9-0.1-2.3-0.1c-2.9,0-5.2,0.8-6.9,2.4
		c-1.7,1.6-2.5,4.1-2.5,7.4v16.6h-10.1V42.3h9.7v4.6C1044.3,45.3,1045.9,44,1048,43.1z"/>
	<path class="st5" d="M1082.7,75.7c-3-1.6-5.3-3.7-7-6.4c-1.7-2.7-2.5-5.9-2.5-9.3s0.8-6.6,2.5-9.3s4-4.9,7-6.4
		c3-1.6,6.4-2.3,10.1-2.3s6.9,0.8,9.7,2.3c2.8,1.6,4.8,3.8,6,6.6l-7.9,4.2c-1.8-3.2-4.5-4.8-7.9-4.8c-2.7,0-4.9,0.9-6.6,2.6
		c-1.7,1.7-2.6,4.1-2.6,7.1s0.9,5.4,2.6,7.1s3.9,2.6,6.6,2.6c3.5,0,6.1-1.6,7.9-4.8l7.9,4.3c-1.3,2.8-3.3,5-6,6.5
		c-2.8,1.6-6,2.4-9.7,2.4C1089.1,78,1085.7,77.2,1082.7,75.7z"/>
	<path class="st5" d="M1120.8,75.7c-2.9-1.6-5.2-3.7-6.9-6.4c-1.7-2.7-2.5-5.9-2.5-9.3s0.8-6.6,2.5-9.3c1.6-2.7,4-4.9,6.9-6.4
		c2.9-1.6,6.3-2.3,10-2.3s7,0.8,9.9,2.3c2.9,1.6,5.2,3.7,6.9,6.4c1.6,2.7,2.5,5.9,2.5,9.3s-0.8,6.6-2.5,9.3s-3.9,4.9-6.9,6.4
		c-2.9,1.6-6.2,2.3-9.9,2.3C1127,78,1123.7,77.2,1120.8,75.7z M1137.2,67c1.7-1.8,2.5-4.1,2.5-7.1s-0.8-5.3-2.5-7.1
		s-3.8-2.6-6.4-2.6s-4.8,0.9-6.5,2.6c-1.7,1.8-2.5,4.1-2.5,7.1s0.9,5.3,2.5,7.1c1.7,1.8,3.9,2.6,6.5,2.6S1135.5,68.7,1137.2,67z"/>
	<path class="st5" d="M1192.6,29v48.5h-9.7v-4.1c-2.5,3.1-6.2,4.6-11,4.6c-3.3,0-6.3-0.7-9-2.2s-4.8-3.6-6.3-6.3s-2.3-5.9-2.3-9.5
		s0.8-6.8,2.3-9.5s3.6-4.9,6.3-6.3c2.7-1.5,5.7-2.2,9-2.2c4.5,0,8,1.4,10.5,4.2V29.1L1192.6,29L1192.6,29z M1180,67
		c1.7-1.8,2.5-4.1,2.5-7.1s-0.9-5.3-2.5-7.1c-1.7-1.8-3.8-2.6-6.4-2.6s-4.8,0.9-6.5,2.6c-1.7,1.8-2.5,4.1-2.5,7.1s0.9,5.3,2.5,7.1
		c1.7,1.8,3.9,2.6,6.5,2.6S1178.3,68.7,1180,67z"/>
	<path class="st5" d="M1236.2,62.8h-26.6c0.5,2.2,1.6,3.9,3.4,5.2s4,1.9,6.7,1.9c1.8,0,3.5-0.3,4.9-0.8s2.7-1.4,4-2.6l5.4,5.9
		c-3.3,3.8-8.1,5.7-14.5,5.7c-4,0-7.5-0.8-10.5-2.3s-5.4-3.7-7-6.4c-1.7-2.7-2.5-5.9-2.5-9.3c0-3.4,0.8-6.5,2.5-9.3
		c1.6-2.8,3.9-4.9,6.7-6.5c2.8-1.6,6-2.3,9.6-2.3c3.4,0,6.5,0.7,9.3,2.2s5,3.6,6.6,6.4c1.6,2.8,2.4,6,2.4,9.6
		C1236.4,60.1,1236.3,61.1,1236.2,62.8z M1212.4,51.5c-1.6,1.3-2.5,3.1-2.9,5.4h17.3c-0.4-2.2-1.3-4-2.9-5.3s-3.5-2-5.8-2
		C1215.9,49.5,1213.9,50.1,1212.4,51.5z"/>
</g>
</svg>
